<svg xmlns="http://www.w3.org/2000/svg" xmlns:xlink="http://www.w3.org/1999/xlink" width="92" zoomAndPan="magnify" style="border-radius: 10px" viewBox="0 0 69 76.499998" height="102" preserveAspectRatio="xMidYMid meet" version="1.0"><defs><clipPath id="d5526e8f6f"><path d="M 0.222656 0 L 68.773438 0 L 68.773438 76.003906 L 0.222656 76.003906 Z M 0.222656 0 " clip-rule="nonzero"/></clipPath><clipPath id="1e63ac7984"><path d="M 17 11.535156 L 55.105469 11.535156 L 55.105469 60 L 17 60 Z M 17 11.535156 " clip-rule="nonzero"/></clipPath><clipPath id="4e64547a65"><path d="M 7.417969 43 L 29 43 L 29 64.441406 L 7.417969 64.441406 Z M 7.417969 43 " clip-rule="nonzero"/></clipPath><clipPath id="9fb57fc615"><path d="M 0.308594 0.378906 L 68.773438 0.378906 L 68.773438 75.367188 L 0.308594 75.367188 Z M 0.308594 0.378906 " clip-rule="nonzero"/></clipPath><clipPath id="8a3693b7ef"><path d="M 11.480469 0.378906 L 57.507812 0.378906 C 63.679688 0.378906 68.683594 5.382812 68.683594 11.554688 L 68.683594 64.191406 C 68.683594 70.363281 63.679688 75.367188 57.507812 75.367188 L 11.480469 75.367188 C 5.308594 75.367188 0.308594 70.363281 0.308594 64.191406 L 0.308594 11.554688 C 0.308594 5.382812 5.308594 0.378906 11.480469 0.378906 Z M 11.480469 0.378906 " clip-rule="nonzero"/></clipPath></defs><g clip-path="url(#d5526e8f6f)"><path fill="#ffffff" d="M 0.222656 0 L 68.777344 0 L 68.777344 76.003906 L 0.222656 76.003906 Z M 0.222656 0 " fill-opacity="1" fill-rule="nonzero"/></g><g clip-path="url(#1e63ac7984)"><path fill="#000000" d="M 52.691406 59.890625 L 25.984375 59.890625 L 25.984375 58.421875 L 52.691406 58.421875 C 53.191406 58.421875 53.597656 58.019531 53.597656 57.519531 L 53.597656 21.894531 L 44.710938 13 L 19.449219 13 C 18.953125 13 18.550781 13.40625 18.550781 13.910156 L 18.550781 16.933594 L 17.085938 16.933594 L 17.085938 13.910156 C 17.085938 12.597656 18.144531 11.53125 19.449219 11.53125 L 45.292969 11.53125 L 45.5 11.71875 L 55.0625 21.289062 L 55.0625 57.519531 C 55.0625 58.828125 54 59.890625 52.691406 59.890625 " fill-opacity="1" fill-rule="nonzero"/></g><path fill="#000000" d="M 18.550781 44.222656 L 17.085938 44.222656 L 17.085938 22.933594 L 18.550781 22.933594 L 18.550781 44.222656 " fill-opacity="1" fill-rule="nonzero"/><path fill="#000000" d="M 54.332031 22.324219 L 45.78125 22.324219 C 44.957031 22.324219 44.28125 21.65625 44.28125 20.828125 L 44.28125 12.265625 L 45.746094 12.265625 L 45.746094 20.828125 L 54.332031 20.859375 L 54.332031 22.324219 " fill-opacity="1" fill-rule="nonzero"/><path fill="#000000" d="M 15.792969 17.664062 C 15.335938 17.664062 14.964844 18.035156 14.964844 18.492188 L 14.964844 21.371094 C 14.964844 21.824219 15.335938 22.195312 15.792969 22.195312 L 36.152344 22.195312 C 36.609375 22.195312 36.980469 21.824219 36.980469 21.371094 L 36.980469 18.492188 C 36.980469 18.035156 36.609375 17.664062 36.152344 17.664062 Z M 36.152344 23.664062 L 15.792969 23.664062 C 14.527344 23.664062 13.5 22.632812 13.5 21.371094 L 13.5 18.492188 C 13.5 17.226562 14.527344 16.199219 15.792969 16.199219 L 36.152344 16.199219 C 37.414062 16.199219 38.445312 17.226562 38.445312 18.492188 L 38.445312 21.371094 C 38.445312 22.632812 37.414062 23.664062 36.152344 23.664062 " fill-opacity="1" fill-rule="nonzero"/><path fill="#000000" d="M 47.480469 29.863281 L 26.902344 29.863281 L 26.902344 28.394531 L 47.480469 28.394531 L 47.480469 29.863281 " fill-opacity="1" fill-rule="nonzero"/><path fill="#000000" d="M 47.480469 36.0625 L 26.902344 36.0625 L 26.902344 34.597656 L 47.480469 34.597656 L 47.480469 36.0625 " fill-opacity="1" fill-rule="nonzero"/><path fill="#000000" d="M 47.480469 42.265625 L 26.902344 42.265625 L 26.902344 40.796875 L 47.480469 40.796875 L 47.480469 42.265625 " fill-opacity="1" fill-rule="nonzero"/><path fill="#000000" d="M 47.480469 48.464844 L 26.902344 48.464844 L 26.902344 46.996094 L 47.480469 46.996094 L 47.480469 48.464844 " fill-opacity="1" fill-rule="nonzero"/><path fill="#000000" d="M 47.480469 54.660156 L 27.511719 54.660156 L 27.511719 53.195312 L 47.480469 53.195312 L 47.480469 54.660156 " fill-opacity="1" fill-rule="nonzero"/><path fill="#000000" d="M 16.089844 58.816406 L 12.742188 54.949219 L 13.847656 53.992188 L 16.070312 56.554688 L 21.777344 49.703125 L 22.90625 50.644531 L 16.089844 58.816406 " fill-opacity="1" fill-rule="nonzero"/><g clip-path="url(#4e64547a65)"><path fill="#000000" d="M 17.816406 44.953125 C 12.875 44.953125 8.851562 48.980469 8.851562 53.929688 C 8.851562 58.878906 12.875 62.902344 17.816406 62.902344 C 22.761719 62.902344 26.78125 58.878906 26.78125 53.929688 C 26.78125 48.980469 22.761719 44.953125 17.816406 44.953125 Z M 17.816406 64.371094 C 12.066406 64.371094 7.386719 59.6875 7.386719 53.929688 C 7.386719 48.175781 12.066406 43.488281 17.816406 43.488281 C 23.570312 43.488281 28.246094 48.175781 28.246094 53.929688 C 28.246094 59.6875 23.570312 64.371094 17.816406 64.371094 " fill-opacity="1" fill-rule="nonzero"/></g><g clip-path="url(#9fb57fc615)"><g clip-path="url(#8a3693b7ef)"><path stroke-linecap="butt" transform="matrix(0.74513, 0, 0, 0.74513, 0.307019, 0.37785)" fill="none" stroke-linejoin="miter" d="M 14.995306 0.00141768 L 76.766208 0.00141768 C 85.04916 0.00141768 91.764642 6.7169 91.764642 14.999852 L 91.764642 85.640852 C 91.764642 93.923804 85.04916 100.639286 76.766208 100.639286 L 14.995306 100.639286 C 6.712353 100.639286 0.00211367 93.923804 0.00211367 85.640852 L 0.00211367 14.999852 C 0.00211367 6.7169 6.712353 0.00141768 14.995306 0.00141768 Z M 14.995306 0.00141768 " stroke="#000000" stroke-width="6" stroke-opacity="1" stroke-miterlimit="4"/></g></g></svg>